g Teleporter_Screen_2
v -0.1158104 1.223488 -0.5394607
v -0.07252741 1.225673 -0.5433822
v -0.1540812 1.213011 -0.521596
v -0.1815144 1.195836 -0.4925089
v -0.1939322 1.174581 -0.4566259
v -0.1894445 1.152478 -0.4194107
v -0.1687346 1.132895 -0.3865292
v -0.1349558 1.118813 -0.3629868
v -0.0932495 1.112373 -0.3523681
v -0.04996586 1.114559 -0.3562896
v -0.01169503 1.125036 -0.3741539
v 0.01573738 1.14221 -0.4032421
v 0.02815515 1.163466 -0.4391246
v 0.02366753 1.185568 -0.4763398
v 0.002958188 1.205152 -0.5092211
v -0.03082114 1.219234 -0.5327635
vt 0.3137406 0.9496688
vt 0.4999997 0.9867185
vt 0.1558384 0.8441621
vt 0.05033088 0.6862592
vt 0.01328176 0.4999999
vt 0.05033088 0.3137402
vt 0.1558382 0.1558375
vt 0.3137414 0.0503301
vt 0.5000004 0.01328129
vt 0.6862594 0.05033016
vt 0.8441617 0.1558378
vt 0.9496696 0.3137406
vt 0.9867191 0.4999998
vt 0.9496702 0.686259
vt 0.8441625 0.8441614
vt 0.6862597 0.9496689
vn 0.002835145 0.8599398 0.5103877
vn 0.0028163 0.8599442 0.5103803
vn 0.002845715 0.8599164 0.5104268
vn 0.002811902 0.8599485 0.5103732
vn 0.00282109 0.8599434 0.5103816
vn 0.002813826 0.8599466 0.5103763
vn 0.002812563 0.8599472 0.5103751
vn 0.002819956 0.8599453 0.5103784
vn 0.002819064 0.8599446 0.5103794
vn 0.002814874 0.8599454 0.5103782
vn 0.002818708 0.8599458 0.5103776
vn 0.002817041 0.8599442 0.5103803
vn 0.00280243 0.8599408 0.5103862
vn 0.002824354 0.8599505 0.5103697
vn 0.002791095 0.8599301 0.5104042
vn 0.002801635 0.8599318 0.5104014
g Teleporter_Screen_2_0
f 3/3/3 2/2/2 1/1/1
f 4/4/4 2/2/2 3/3/3
f 5/5/5 2/2/2 4/4/4
f 6/6/6 2/2/2 5/5/5
f 7/7/7 2/2/2 6/6/6
f 8/8/8 2/2/2 7/7/7
f 9/9/9 2/2/2 8/8/8
f 10/10/10 2/2/2 9/9/9
f 11/11/11 2/2/2 10/10/10
f 12/12/12 2/2/2 11/11/11
f 13/13/13 2/2/2 12/12/12
f 14/14/14 2/2/2 13/13/13
f 15/15/15 2/2/2 14/14/14
f 16/16/16 2/2/2 15/15/15
